<svg width="25" height="25" viewBox="0 0 25 25" fill="none" xmlns="http://www.w3.org/2000/svg">
<g id="Social Media / Vkontakte">
<path id="path4" fill-rule="evenodd" clip-rule="evenodd" d="M19.5028 8.41632C19.6042 8.09781 19.5028 7.86377 19.0201 7.86377H17.4239C17.018 7.86377 16.8309 8.06595 16.7294 8.28889C16.7294 8.28889 15.9177 10.1522 14.7678 11.3625C14.3958 11.7128 14.2267 11.8243 14.0238 11.8243C13.9223 11.8243 13.7754 11.7128 13.7754 11.3943V8.41632C13.7754 8.03411 13.6576 7.86377 13.3194 7.86377H10.8111C10.5575 7.86377 10.405 8.04116 10.405 8.20928C10.405 8.57161 10.9799 8.65517 11.0391 9.6744V11.888C11.0391 12.3733 10.9461 12.4613 10.7431 12.4613C10.202 12.4613 8.88576 10.5897 8.10509 8.44816C7.9521 8.03191 7.79865 7.86377 7.39071 7.86377H5.79452C5.33847 7.86377 5.24725 8.06595 5.24725 8.28889C5.24725 8.68703 5.7884 10.6618 7.7669 13.2735C9.0859 15.0571 10.9443 16.0239 12.6353 16.0239C13.6499 16.0239 13.7755 15.8092 13.7755 15.4393V14.0913C13.7755 13.6618 13.8716 13.5761 14.1929 13.5761C14.4296 13.5761 14.8355 13.6875 15.7825 14.5475C16.8647 15.5667 17.0432 16.0239 17.6519 16.0239H19.2481C19.7042 16.0239 19.9322 15.8092 19.8006 15.3854C19.6567 14.963 19.14 14.3503 18.4543 13.6238C18.0823 13.2098 17.5242 12.7639 17.3551 12.5409C17.1184 12.2543 17.186 12.1269 17.3551 11.8721C17.3551 11.8721 19.2998 9.29219 19.5028 8.41632Z" fill="black"/>
</g>
</svg>
